<?xml version="1.0" encoding="utf-8"?>
<!-- Generator: Adobe Illustrator 27.0.1, SVG Export Plug-In . SVG Version: 6.00 Build 0)  -->
<svg version="1.1" id="Camada_1" xmlns="http://www.w3.org/2000/svg" xmlns:xlink="http://www.w3.org/1999/xlink" x="0px" y="0px"
	 viewBox="0 0 50 50" style="enable-background:new 0 0 50 50;" xml:space="preserve">
<style type="text/css">
	.st0{fill-rule:evenodd;clip-rule:evenodd;fill:url(#SVGID_1_);}
	.st1{fill-rule:evenodd;clip-rule:evenodd;fill:#FFFFFF;}
</style>
<linearGradient id="SVGID_1_" gradientUnits="userSpaceOnUse" x1="25" y1="0.5" x2="25" y2="49.5">
	<stop  offset="0" style="stop-color:#00C13E"/>
	<stop  offset="1" style="stop-color:#008530"/>
</linearGradient>
<path class="st0" d="M25,49.5L25,49.5C11.52,49.5,0.5,38.48,0.5,25v0C0.5,11.52,11.52,0.5,25,0.5h0c13.47,0,24.5,11.02,24.5,24.5v0
	C49.5,38.48,38.48,49.5,25,49.5z"/>
<g>
	<path class="st1" d="M41.8,24.57c0,9.04-7.38,16.37-16.49,16.37c-2.89,0-5.61-0.74-7.97-2.04L8.2,41.8l2.98-8.78
		c-1.5-2.47-2.37-5.36-2.37-8.45c0-9.04,7.38-16.37,16.5-16.37C34.42,8.2,41.8,15.53,41.8,24.57L41.8,24.57z M25.31,10.81
		c-7.65,0-13.87,6.17-13.87,13.76c0,3.01,0.98,5.8,2.64,8.07l-1.73,5.11l5.33-1.69c2.19,1.44,4.81,2.27,7.63,2.27
		c7.65,0,13.87-6.17,13.87-13.76C39.17,16.98,32.95,10.81,25.31,10.81L25.31,10.81z M33.64,28.34c-0.1-0.17-0.37-0.27-0.77-0.47
		c-0.4-0.2-2.39-1.17-2.76-1.3c-0.37-0.13-0.64-0.2-0.91,0.2c-0.27,0.4-1.04,1.31-1.28,1.57c-0.24,0.27-0.47,0.3-0.87,0.1
		c-0.41-0.2-1.71-0.63-3.25-1.99c-1.2-1.06-2.01-2.38-2.25-2.78c-0.23-0.4-0.02-0.62,0.18-0.82c0.18-0.18,0.41-0.47,0.61-0.7
		c0.2-0.24,0.27-0.4,0.4-0.67c0.13-0.27,0.07-0.5-0.03-0.7c-0.1-0.2-0.91-2.17-1.25-2.98c-0.34-0.8-0.67-0.77-0.91-0.77
		c-0.24,0-0.67,0.07-0.67,0.07s-0.81,0.1-1.18,0.5c-0.37,0.4-1.41,1.37-1.41,3.35c0,1.97,1.45,3.88,1.65,4.15
		c0.2,0.27,2.8,4.45,6.91,6.06c4.11,1.61,4.11,1.07,4.85,1c0.74-0.07,2.39-0.97,2.73-1.91C33.74,29.31,33.74,28.5,33.64,28.34
		L33.64,28.34z M33.64,28.34"/>
</g>
</svg>
